<svg width="200" height="200" xmlns="http://www.w3.org/2000/svg" style="vector-effect: non-scaling-stroke;">

 <g>
  <title>Layer 1</title>
  <path style="vector-effect: non-scaling-stroke;" id="svg_12" opacity="NaN" stroke-width="10" stroke="#000" fill="#ffffff"/>
  <path transform="translate(-0.877193, 5.26316)" id="svg_41" d="m101.83796,136.64683c-49.29044,0 -89.70589,-37.32532 -89.2157,-37.25491c0.4902,0.07041 36.00369,-40.19608 87.25491,-40.68628c51.25123,-0.4902 90.68629,40.2665 91.17648,40.68628c0.4902,0.41978 -39.92526,37.25491 -89.2157,37.25491z" opacity="undefined" stroke-width="5" stroke="#000" fill="#ffffff"/>
  <path transform="translate(-0.877193, 5.26316)" id="svg_14" d="m101.76087,136.67707c-17.03858,0 -30.83983,-17.45936 -30.83983,-39.01413c0,-21.55477 13.80125,-39.01413 30.83983,-39.01413c17.03858,0 30.83983,17.45936 30.83983,39.01413c0,21.55477 -13.80125,39.01413 -30.83983,39.01413z" opacity="undefined" stroke-width="5" stroke="#000000" fill="#ffffff"/>
  <path transform="translate(-3.1746, 1.5873)" id="svg_43" opacity="NaN" stroke-width="5" stroke="#000" fill="#000000"/>
  <path transform="translate(-3.1746, 1.5873)" id="svg_42" opacity="NaN" stroke-width="5" stroke="#000" fill="#ffffff"/>
  <path transform="translate(-0.877193, 5.26316)" id="svg_45" d="m101.82725,52.81066c-4.50078,0 -3.78566,-11.26935 -3.78566,-25.18213c0,-13.91278 -0.43364,-25.53433 3.78566,-25.18213c4.2193,0.3522 3.78566,11.26935 3.78566,25.18213c0,13.91278 0.71512,25.18213 -3.78566,25.18213z" opacity="undefined" stroke="#ffffff" fill="#000000"/>
  <path transform="translate(-0.877193, 5.26316) rotate(-25, 38.7091, 36.5762)" id="svg_46" d="m38.70906,56.81911c-4.50078,0 -3.78566,-9.05757 -3.78566,-20.23976c0,-11.18219 -0.43364,-20.52283 3.78566,-20.23976c4.2193,0.28307 3.78566,9.05757 3.78566,20.23976c0,11.18219 0.71512,20.23976 -3.78566,20.23976z" opacity="undefined" stroke="#ffffff" fill="#000000"/>
  <path transform="translate(-0.877193, 5.26316) rotate(25, 162.411, 36.5173)" id="svg_47" d="m162.41062,57.79304c-4.50078,0 -3.78566,-9.51972 -3.78566,-21.27247c0,-11.75275 -0.43364,-21.56999 3.78566,-21.27247c4.2193,0.29752 3.78566,9.51972 3.78566,21.27247c0,11.75275 0.71512,21.27247 -3.78566,21.27247z" opacity="undefined" stroke="#ffffff" fill="#000000"/>
 </g>
</svg>