<?xml version="1.0" encoding="utf-8"?>
<!-- Svg Vector Icons : http://www.onlinewebfonts.com/icon -->
<!DOCTYPE svg PUBLIC "-//W3C//DTD SVG 1.1//EN" "http://www.w3.org/Graphics/SVG/1.1/DTD/svg11.dtd">
<svg version="1.1" xmlns="http://www.w3.org/2000/svg" xmlns:xlink="http://www.w3.org/1999/xlink" x="0px" y="0px" viewBox="0 0 1000 1000" enable-background="new 0 0 1000 1000" xml:space="preserve">
<metadata> Svg Vector Icons : http://www.onlinewebfonts.com/icon </metadata>
<g><g><path d="M475.2,493h-411c-16.1,0-30.6-9.7-36.7-24.6c-6.1-14.9-2.5-31.8,8.9-43.1L378.5,89.1H64.2c-21.9,0-39.6-17.9-39.6-39.6C24.7,27.6,42.4,10,64.2,10h411c16,0,30.5,9.7,36.6,24.6c6.1,14.9,2.5,31.8-8.9,43.1L160.9,414h314.3c21.8,0,39.6,17.8,39.6,39.6C514.8,475.4,497,493,475.2,493z M935.7,574.3H742.1l221.5-217.7c11.5-11.4,14.8-28.2,8.9-43.1c-6.1-14.9-20.7-24.7-36.8-24.7H645.3c-21.7,0-39.6,17.7-39.6,39.5c0,21.7,17.9,39.6,39.6,39.6H839L617.5,585.6c-11.5,11.4-14.9,28.2-8.9,43.1c6.1,15,20.6,24.7,36.6,24.7h290.4c21.9,0,39.6-17.8,39.6-39.5C975.3,592.1,957.6,574.3,935.7,574.3z M489.2,910.9H354.1l162.8-159.9c11.5-11.3,15-28.4,8.9-43.2c-6.1-14.9-20.6-24.6-36.7-24.6H257.4c-21.8,0-39.6,17.8-39.6,39.6s17.7,39.6,39.6,39.6h135.1L229.7,922.1c-11.5,11.4-15,28.2-8.9,43.1c6.1,14.9,20.6,24.7,36.6,24.7h231.7c21.8,0,39.5-17.8,39.5-39.6C528.7,928.7,511.2,910.9,489.2,910.9z"/></g><g></g><g></g><g></g><g></g><g></g><g></g><g></g><g></g><g></g><g></g><g></g><g></g><g></g><g></g><g></g></g>
</svg>